# xmcd
#
# Track frame offsets: 
#        150
#        18253
#        35097
#        52421
#        69090
#        84116
#        99520
#        117784
#        135243
#        151093
#        171632
#        186818
#        204332
#        221007
#        236771
#
# Disc length: 3369 seconds
#
# Revision: 0
# Processed by: cddbd v1.5.1PL2 Copyright (c) Steve Scherf et al.
# Submitted via: ExactAudioCopy v0.95a5
#
DISCID=c60d270f
DTITLE=Nos Festivais Missioneiros - Valdomiro Maica
DYEAR=2005
DGENRE=Gaucha
TTITLE0=Aurora da Liberdade
TTITLE1=Varando o Uruguai a Remo
TTITLE2=No bufo de uma Vaneira
TTITLE3=Gana Missioneira
TTITLE4=Alegria, Veio a Chuva
TTITLE5=Um canto triste para o Uruguai
TTITLE6=Fronteiros
TTITLE7=Alma Campeira
TTITLE8=Rio Uruguai
TTITLE9=Raiz Costeira
TTITLE10=Noite Missioneira
TTITLE11=Ultima Tarefa
TTITLE12=Renascer
TTITLE13=Herança Missioneira
TTITLE14=Existencias Missioneiras
EXTD=
EXTT0=
EXTT1=
EXTT2=
EXTT3=
EXTT4=
EXTT5=
EXTT6=
EXTT7=
EXTT8=
EXTT9=
EXTT10=
EXTT11=
EXTT12=
EXTT13=
EXTT14=
PLAYORDER=
